HIERARCHY
ROOT hips_JNT
{
  OFFSET 0 79.1032 1.32574
  CHANNELS 6 Xposition Yposition Zposition Zrotation Xrotation Yrotation
  JOINT l_upleg_JNT
  {
    OFFSET 7.51591 0 0
    CHANNELS 6 Xposition Yposition Zposition Zrotation Xrotation Yrotation
    JOINT l_leg_JNT
    {
      OFFSET 0.00021553 -37.7436 0.0132276
      CHANNELS 6 Xposition Yposition Zposition Zrotation Xrotation Yrotation
      JOINT l_foot_JNT
      {
        OFFSET 5.36456e-05 -34.5752 -3.41895e-05
        CHANNELS 6 Xposition Yposition Zposition Zrotation Xrotation Yrotation
        JOINT l_toebase_JNT
        {
          OFFSET 0 -6.10494 11.1619
          CHANNELS 6 Xposition Yposition Zposition Zrotation Xrotation Yrotation
          End Site
          {
            OFFSET 0 0 0
          }
        }
      }
    }
  }
  JOINT r_upleg_JNT
  {
    OFFSET -7.5159 1.52588e-05 0
    CHANNELS 6 Xposition Yposition Zposition Zrotation Xrotation Yrotation
    JOINT r_leg_JNT
    {
      OFFSET -0.724057 -37.7363 0.184397
      CHANNELS 6 Xposition Yposition Zposition Zrotation Xrotation Yrotation
      JOINT r_foot_JNT
      {
        OFFSET 0.000125885 -34.5752 -3.52859e-05
        CHANNELS 6 Xposition Yposition Zposition Zrotation Xrotation Yrotation
        JOINT r_toebase_JNT
        {
          OFFSET 1.10415e-05 -6.10491 11.1619
          CHANNELS 6 Xposition Yposition Zposition Zrotation Xrotation Yrotation
          End Site
          {
            OFFSET 0 0 0
          }
        }
      }
    }
  }
  JOINT spine_JNT
  {
    OFFSET 0 4.13037 -0.00851196
    CHANNELS 6 Xposition Yposition Zposition Zrotation Xrotation Yrotation
    JOINT spine1_JNT
    {
      OFFSET 0 10.694 -0.00556841
      CHANNELS 6 Xposition Yposition Zposition Zrotation Xrotation Yrotation
      JOINT spine2_JNT
      {
        OFFSET 0 10.1532 -0.0126237
        CHANNELS 6 Xposition Yposition Zposition Zrotation Xrotation Yrotation
        JOINT neck_JNT
        {
          OFFSET 0 17.0656 0.263753
          CHANNELS 6 Xposition Yposition Zposition Zrotation Xrotation Yrotation
          JOINT head_JNT
          {
            OFFSET 0 8.13758 0.00775528
            CHANNELS 6 Xposition Yposition Zposition Zrotation Xrotation Yrotation
            JOINT r_eye_LOC
            {
              OFFSET -5.0999 12.3066 9.66418
              CHANNELS 6 Xposition Yposition Zposition Zrotation Xrotation Yrotation
              JOINT r_eye_JNT
              {
                OFFSET 0 0 0
                CHANNELS 6 Xposition Yposition Zposition Zrotation Xrotation Yrotation
                End Site
                {
                  OFFSET 0 0 0
                }
              }
            }
            JOINT l_eye_LOC
            {
              OFFSET 5.1001 12.3524 9.66465
              CHANNELS 6 Xposition Yposition Zposition Zrotation Xrotation Yrotation
              JOINT l_eye_JNT
              {
                OFFSET 0 -0.0458202 0
                CHANNELS 6 Xposition Yposition Zposition Zrotation Xrotation Yrotation
                End Site
                {
                  OFFSET 0 0 0
                }
              }
            }
            JOINT headtop_End_JNT
            {
              OFFSET 0 29.3713 3.60361
              CHANNELS 6 Xposition Yposition Zposition Zrotation Xrotation Yrotation
              End Site
              {
                OFFSET 0 0 0
              }
            }
          }
        }
        JOINT r_shoulder_JNT
        {
          OFFSET -2.88677 12.5391 -0.534969
          CHANNELS 6 Xposition Yposition Zposition Zrotation Xrotation Yrotation
          JOINT r_arm_JNT
          {
            OFFSET -10.2653 -4.30258e-05 -1.95581e-05
            CHANNELS 6 Xposition Yposition Zposition Zrotation Xrotation Yrotation
            JOINT r_forearm_JNT
            {
              OFFSET -25.5729 0 0
              CHANNELS 6 Xposition Yposition Zposition Zrotation Xrotation Yrotation
              JOINT r_hand_JNT
              {
                OFFSET -19.807 -0.346 0
                CHANNELS 6 Xposition Yposition Zposition Zrotation Xrotation Yrotation
                JOINT r_handIndex1_JNT
                {
                  OFFSET -8.23562 -0.114204 3.70825
                  CHANNELS 6 Xposition Yposition Zposition Zrotation Xrotation Yrotation
                  JOINT r_handIndex2_JNT
                  {
                    OFFSET -3.89615 0.2885 -0.000463647
                    CHANNELS 6 Xposition Yposition Zposition Zrotation Xrotation Yrotation
                    JOINT r_handIndex3_JNT
                    {
                      OFFSET -2.31839 0.159237 -0.000487052
                      CHANNELS 6 Xposition Yposition Zposition Zrotation Xrotation Yrotation
                      JOINT r_handIndex4_JNT
                      {
                        OFFSET -2.566 0 0
                        CHANNELS 6 Xposition Yposition Zposition Zrotation Xrotation Yrotation
                        End Site
                        {
                          OFFSET 0 0 0
                        }
                      }
                    }
                  }
                }
                JOINT r_handMiddle1_JNT
                {
                  OFFSET -9.03092 0.0345368 1.23996
                  CHANNELS 6 Xposition Yposition Zposition Zrotation Xrotation Yrotation
                  JOINT r_handMiddle2_JNT
                  {
                    OFFSET -3.91801 0.0581239 -0.000244626
                    CHANNELS 6 Xposition Yposition Zposition Zrotation Xrotation Yrotation
                    JOINT r_handMiddle3_JNT
                    {
                      OFFSET -2.51717 0.0209293 -0.000343796
                      CHANNELS 6 Xposition Yposition Zposition Zrotation Xrotation Yrotation
                      JOINT r_handMiddle4_JNT
                      {
                        OFFSET -3.281 5.34608e-05 0
                        CHANNELS 6 Xposition Yposition Zposition Zrotation Xrotation Yrotation
                        End Site
                        {
                          OFFSET 0 0 0
                        }
                      }
                    }
                  }
                }
                JOINT r_handPinky1_JNT
                {
                  OFFSET -7.36435 -1.01523 -3.40195
                  CHANNELS 6 Xposition Yposition Zposition Zrotation Xrotation Yrotation
                  JOINT r_handPinky2_JNT
                  {
                    OFFSET -2.92337 0.0657748 -1.53088e-05
                    CHANNELS 6 Xposition Yposition Zposition Zrotation Xrotation Yrotation
                    JOINT r_handPinky3_JNT
                    {
                      OFFSET -1.90311 -0.0136937 0
                      CHANNELS 6 Xposition Yposition Zposition Zrotation Xrotation Yrotation
                      JOINT r_handPinky4_JNT
                      {
                        OFFSET -2.82564 6.37519e-05 2.03902e-05
                        CHANNELS 6 Xposition Yposition Zposition Zrotation Xrotation Yrotation
                        End Site
                        {
                          OFFSET 0 0 0
                        }
                      }
                    }
                  }
                }
                JOINT r_handRing1_JNT
                {
                  OFFSET -8.7541 -0.321932 -1.44759
                  CHANNELS 6 Xposition Yposition Zposition Zrotation Xrotation Yrotation
                  JOINT r_handRing2_JNT
                  {
                    OFFSET -3.67081 0.00366491 1.15677e-05
                    CHANNELS 6 Xposition Yposition Zposition Zrotation Xrotation Yrotation
                    JOINT r_handRing3_JNT
                    {
                      OFFSET -2.39166 0.00568779 0
                      CHANNELS 6 Xposition Yposition Zposition Zrotation Xrotation Yrotation
                      JOINT r_handRing4_JNT
                      {
                        OFFSET -2.88246 2.68889e-05 0
                        CHANNELS 6 Xposition Yposition Zposition Zrotation Xrotation Yrotation
                        End Site
                        {
                          OFFSET 0 0 0
                        }
                      }
                    }
                  }
                }
                JOINT r_handThumb1_JNT
                {
                  OFFSET -1.80121 -1.26684 3.57624
                  CHANNELS 6 Xposition Yposition Zposition Zrotation Xrotation Yrotation
                  JOINT r_handThumb2_JNT
                  {
                    OFFSET -2.63925 -0.0236185 -0.053142
                    CHANNELS 6 Xposition Yposition Zposition Zrotation Xrotation Yrotation
                    JOINT r_handThumb3_JNT
                    {
                      OFFSET -2.69898 -0.823877 3.2058e-05
                      CHANNELS 6 Xposition Yposition Zposition Zrotation Xrotation Yrotation
                      JOINT r_handThumb4_JNT
                      {
                        OFFSET -3.8753 -0.61178 -2.783e-05
                        CHANNELS 6 Xposition Yposition Zposition Zrotation Xrotation Yrotation
                        End Site
                        {
                          OFFSET 0 0 0
                        }
                      }
                    }
                  }
                }
              }
            }
          }
        }
        JOINT l_shoulder_JNT
        {
          OFFSET 2.88666 12.5391 -0.534974
          CHANNELS 6 Xposition Yposition Zposition Zrotation Xrotation Yrotation
          JOINT l_arm_JNT
          {
            OFFSET 10.2653 3.9404e-05 2.02368e-05
            CHANNELS 6 Xposition Yposition Zposition Zrotation Xrotation Yrotation
            JOINT l_forearm_JNT
            {
              OFFSET 25.5729 0 0
              CHANNELS 6 Xposition Yposition Zposition Zrotation Xrotation Yrotation
              JOINT l_hand_JNT
              {
                OFFSET 19.8068 -0.345714 0
                CHANNELS 6 Xposition Yposition Zposition Zrotation Xrotation Yrotation
                JOINT l_handMiddle1_JNT
                {
                  OFFSET 9.01306 0.0540988 1.28481
                  CHANNELS 6 Xposition Yposition Zposition Zrotation Xrotation Yrotation
                  JOINT l_handMiddle2_JNT
                  {
                    OFFSET 3.91803 0.0559228 0
                    CHANNELS 6 Xposition Yposition Zposition Zrotation Xrotation Yrotation
                    JOINT l_handMiddle3_JNT
                    {
                      OFFSET 2.51718 0.0196203 0
                      CHANNELS 6 Xposition Yposition Zposition Zrotation Xrotation Yrotation
                      JOINT l_handMiddle4_JNT
                      {
                        OFFSET 3.28131 0 0
                        CHANNELS 6 Xposition Yposition Zposition Zrotation Xrotation Yrotation
                        End Site
                        {
                          OFFSET 0 0 0
                        }
                      }
                    }
                  }
                }
                JOINT l_handRing1_JNT
                {
                  OFFSET 8.73626 -0.299045 -1.40318
                  CHANNELS 6 Xposition Yposition Zposition Zrotation Xrotation Yrotation
                  JOINT l_handRing2_JNT
                  {
                    OFFSET 3.6708 0.00369462 0
                    CHANNELS 6 Xposition Yposition Zposition Zrotation Xrotation Yrotation
                    JOINT l_handRing3_JNT
                    {
                      OFFSET 2.39166 0.00574739 0
                      CHANNELS 6 Xposition Yposition Zposition Zrotation Xrotation Yrotation
                      JOINT l_handRing4_JNT
                      {
                        OFFSET 2.88243 0 0
                        CHANNELS 6 Xposition Yposition Zposition Zrotation Xrotation Yrotation
                        End Site
                        {
                          OFFSET 0 0 0
                        }
                      }
                    }
                  }
                }
                JOINT l_handPinky1_JNT
                {
                  OFFSET 7.34662 -0.990183 -3.35839
                  CHANNELS 6 Xposition Yposition Zposition Zrotation Xrotation Yrotation
                  JOINT l_handPinky2_JNT
                  {
                    OFFSET 2.92345 0.0657637 0
                    CHANNELS 6 Xposition Yposition Zposition Zrotation Xrotation Yrotation
                    JOINT l_handPinky3_JNT
                    {
                      OFFSET 1.90305 -0.0136203 0
                      CHANNELS 6 Xposition Yposition Zposition Zrotation Xrotation Yrotation
                      JOINT l_handPinky4_JNT
                      {
                        OFFSET 2.8257 0 0
                        CHANNELS 6 Xposition Yposition Zposition Zrotation Xrotation Yrotation
                        End Site
                        {
                          OFFSET 0 0 0
                        }
                      }
                    }
                  }
                }
                JOINT l_handIndex1_JNT
                {
                  OFFSET 8.21789 -0.0980638 3.75293
                  CHANNELS 6 Xposition Yposition Zposition Zrotation Xrotation Yrotation
                  JOINT l_handIndex2_JNT
                  {
                    OFFSET 3.89626 0.286875 0
                    CHANNELS 6 Xposition Yposition Zposition Zrotation Xrotation Yrotation
                    JOINT l_handIndex3_JNT
                    {
                      OFFSET 2.31843 0.158301 0
                      CHANNELS 6 Xposition Yposition Zposition Zrotation Xrotation Yrotation
                      JOINT l_handIndex4_JNT
                      {
                        OFFSET 2.56603 -2.28882e-05 0
                        CHANNELS 6 Xposition Yposition Zposition Zrotation Xrotation Yrotation
                        End Site
                        {
                          OFFSET 0 0 0
                        }
                      }
                    }
                  }
                }
                JOINT l_handThumb1_JNT
                {
                  OFFSET 1.78384 -1.25249 3.61961
                  CHANNELS 6 Xposition Yposition Zposition Zrotation Xrotation Yrotation
                  JOINT l_handThumb2_JNT
                  {
                    OFFSET 2.63924 -0.0236215 -0.0531074
                    CHANNELS 6 Xposition Yposition Zposition Zrotation Xrotation Yrotation
                    JOINT l_handThumb3_JNT
                    {
                      OFFSET 2.81729 0.161941 -1.92873e-05
                      CHANNELS 6 Xposition Yposition Zposition Zrotation Xrotation Yrotation
                      JOINT l_handThumb4_JNT
                      {
                        OFFSET 3.92326 0 -1.52588e-05
                        CHANNELS 6 Xposition Yposition Zposition Zrotation Xrotation Yrotation
                        End Site
                        {
                          OFFSET 0 0 0
                        }
                      }
                    }
                  }
                }
              }
            }
          }
        }
      }
    }
  }
}
MOTION
Frames:	2
Frame Time:	0.0333333
1.75776e-10 79.1032 1.32574 0.00131806 2.0886 -4.21899e-05 7.51591 5.68434e-13 -7.62939e-06 1.15452 -8.32325 4.73419 0.00021553 -37.7436 0.0132276 -0.0123334 18.6981 0.00354675 5.34058e-05 -34.5752 -3.57628e-05 -0.638542 -12.3897 9.33208 -1.90735e-06 -6.10494 11.1619 -0.278492 0.798091 -0.00114875 -7.5159 1.52588e-05 7.62939e-06 -0.0223473 -8.15471 -4.529 -0.724057 -37.7363 0.184397 -1.0909 18.4433 0.0909014 0.000125885 -34.5752 -3.52859e-05 0.623118 -12.3935 -8.45331 1.14441e-05 -6.10491 11.1619 0.798063 0.278451 -0.00508442 -3.81639e-17 4.13037 -0.00851196 0.00692082 -2.0718 0.000146136 1.50921e-16 10.694 -0.00556841 0.014836 -3.1449 0.00133294 0 10.1532 -0.0126238 0.00924184 -9.41013 0.000194399 -1.38778e-17 17.0656 0.263753 0.000245615 23.8034 -3.13567e-05 1.5335e-15 8.13758 0.00775528 -0.0549822 -8.74424 -0.0139716 -5.0999 12.3066 9.66418 -0.000255642 0.586901 -4.66523e-11 -8.93836e-08 1.98759e-06 3.33794e-07 -2.30524e-18 -3.97569e-16 1.94126e-19 5.1001 12.3524 9.66465 -0.000255642 0.586901 -4.66523e-11 1.01348e-07 -0.0458202 3.33663e-07 8.18369e-18 -3.97569e-16 -6 5.68135e-07 29.3713 3.60361 -1.95045e-07 5.2964 2.28846e-06 -2.88677 12.5391 -0.534969 6.48092 1.40605 -3.44026 -10.2653 -4.57764e-05 -2.00272e-05 74.2628 3.26989 -14.9886 -25.5729 6.03961e-14 -9.53675e-06 -0.223611 -0.0144465 18.1612 -19.807 -0.346 -4.61853e-14 5.71241 6.5708 -9.919 -8.23562 -0.114204 3.70825 13.7824 10.4428 1.79361 -3.89614 0.2885 -0.000463277 16.84 -7.0778e-05 4.06945e-05 -2.31839 0.159237 -0.000487052 5.15213 0.00023668 -2.78299e-15 -2.566 -7.68439e-06 -1.0274e-06 -1.70755e-06 -8.53774e-07 -2.73208e-05 -9.03092 0.0345364 1.23996 18.0861 -3.6315 2.35443 -3.91801 0.0581239 -0.000244626 33.578 0.000155956 -0.000133259 -2.51717 0.020931 -0.000343851 2.31916 -5.72942e-05 -4.28665e-05 -3.281 5.34608e-05 9.21197e-07 1.70755e-06 5.54953e-06 -2.86014e-05 -7.36435 -1.01523 -3.40195 17.353 -12.2763 5.672 -2.92337 0.0657748 -1.53088e-05 27.1728 3.75096e-05 -4.28643e-05 -1.90311 -0.0136937 3.52493e-06 23.1244 -4.44811e-05 1.92091e-05 -2.82564 6.28375e-05 2.02874e-05 2.73208e-05 -4.05542e-06 2.86014e-05 -8.7541 -0.321932 -1.44759 29.2306 -9.21932 7.59201 -3.67081 0.00366535 1.14975e-05 21.1935 0.000347282 -4.12084e-05 -2.39166 0.00568729 -4.80439e-06 17.4032 -7.95139e-16 -9.45698e-06 -2.88246 2.68889e-05 6.63519e-06 -1.70755e-06 2.13443e-05 -0 -1.80121 -1.26684 3.57624 -40.889 38.6069 58.9953 -2.63925 -0.0236185 -0.053142 8.78031 -6.36111e-15 1.10413e-05 -2.69898 -0.823876 3.23385e-05 24.5602 0 -1.59493e-05 -3.8753 -0.61178 -2.783e-05 5.46415e-05 -2.71073e-05 6.61675e-06 2.88666 12.5391 -0.534974 -6.18519 -0.93892 6.62203 10.2653 3.8147e-05 2.00272e-05 -75.5133 9.37004 18.5134 25.5729 -5.32907e-14 2.86102e-06 0.406211 -0.0609134 -24.1662 19.8068 -0.345714 6.15208e-06 -4.39058 -1.44014 17.3818 9.01306 0.0540986 1.28481 -18.0347 -3.53971 -2.3203 3.91803 0.0559228 -2.96757e-06 -33.578 -3.16893e-05 6.95126e-06 2.51718 0.0196203 -9.63e-07 -2.31913 -6.12835e-05 -1.6642e-05 3.28131 3.55272e-15 5.72205e-06 8.53774e-06 2.56132e-06 2.56132e-06 8.73626 -0.299045 -1.40318 -29.207 -9.15575 -7.55431 3.6708 0.00369462 2.91577e-06 -21.1936 1.86092e-05 -7.07605e-08 2.39166 0.00574558 6.85076e-07 -17.4029 -0.00013911 -2.27192e-05 2.88243 7.6294e-06 2.38419e-07 6.83019e-06 1.38738e-06 3.41509e-06 7.34662 -0.990183 -3.35839 -17.3303 -12.2064 -5.64813 2.92345 0.0657637 8.00052e-06 -27.1729 -7.85923e-05 -3.39399e-05 1.90305 -0.0136203 2.86152e-06 -23.1241 3.4599e-05 -1.66734e-05 2.8257 -7.6294e-06 5.72205e-06 3.4151e-06 2.13443e-07 4.26887e-07 8.21789 -0.0980638 3.75293 -13.7381 10.5368 -1.76615 3.89627 0.286875 -4.83418e-06 -16.84 4.01549e-05 2.65901e-05 2.31843 0.158301 -1.80224e-06 -5.15213 2.84512e-05 6.30313e-06 2.56603 -2.28882e-05 7.62939e-06 8.2595e-13 -2.77476e-05 1.70755e-06 1.78384 -1.25249 3.61961 40.9444 38.6635 -59.0557 2.63924 -0.0236215 -0.0531074 -29.0455 1.04286e-05 2.06885e-05 2.81729 0.161941 -1.92873e-05 -13.2656 -7.54508e-06 -2.60501e-05 3.92326 0 -1.52588e-05 -1.70756e-06 2.0704e-05 2.84947e-05 
2.68536e-06 78.8351 0.572872 -0.842083 1.58616 0.712313 7.51591 5.82645e-13 -7.62939e-06 2.18778 -10.2391 4.93364 0.00021553 -37.7436 0.0132276 -0.0199946 22.3498 0.0047478 5.34058e-05 -34.5752 -3.57628e-05 -0.615409 -13.6226 8.46004 -1.90735e-06 -6.10494 11.1619 -0.278492 0.798091 -0.00114881 -7.5159 1.52588e-05 7.62939e-06 0.50982 -9.01923 -6.01123 -0.724057 -37.7363 0.184397 -1.08768 20.1924 0.0909197 0.000125885 -34.5752 -3.52859e-05 0.609802 -12.7766 -7.66666 1.14441e-05 -6.10491 11.1619 0.798063 0.278451 -0.00508432 -2.44249e-15 4.13037 -0.00851196 0.434912 -2.52163 -0.0437099 9.4369e-15 10.694 -0.00556841 0.924572 -5.25758 0.0805922 1.11022e-16 10.1532 -0.0126238 1.77628 -10.4459 0.0698172 -1.77636e-15 17.0656 0.263753 -0.000650635 6.41778 -0.00156942 -4.08562e-14 8.13758 0.00775528 1.43717 0.746905 -0.602329 -5.0999 12.3066 9.66418 -0.000255642 0.586901 -4.66522e-11 -3.31659e-06 -9.2976e-05 2.12064e-06 -0.0118518 5.04726 0.00052236 5.1001 12.3524 9.66465 -0.000255642 0.586901 -4.66522e-11 -3.12494e-06 -0.0459153 2.11106e-06 -0.011852 5.04726 -5.99948 5.68135e-07 29.3713 3.60361 -1.95045e-07 5.2964 2.28846e-06 -2.88677 12.5391 -0.534969 2.54752 0.64815 -3.35775 -10.2653 -4.57764e-05 -2.00272e-05 77.1382 10.8131 -19.601 -25.5729 5.68434e-14 -9.53675e-06 -0.408179 -0.0816749 27.8843 -19.807 -0.346 -6.39489e-14 4.1585 6.52744 -12.1458 -8.24612 -0.113123 3.71359 13.4004 9.7873 1.67606 -3.89614 0.2885 -0.000463289 16.9784 -7.01383e-05 4.04631e-05 -2.31839 0.159237 -0.000487052 5.39754 0.000236674 -1.82328e-06 -2.566 -7.68439e-06 -1.0274e-06 -1.70755e-06 -8.53774e-07 -2.73208e-05 -9.04142 0.0356177 1.2453 18.0632 -3.52102 2.30342 -3.91801 0.0581239 -0.000244624 33.5733 0.000155901 -0.00013316 -2.51717 0.020931 -0.000343851 2.34941 -5.73168e-05 -4.28363e-05 -3.281 5.34608e-05 9.21197e-07 1.70755e-06 5.54953e-06 -2.86014e-05 -7.37485 -1.01415 -3.39661 17.8283 -12.2228 5.24096 -2.92337 0.0657748 -1.52877e-05 27.0836 3.54687e-05 -4.11982e-05 -1.90311 -0.0136937 3.52493e-06 23.1546 -4.4471e-05 1.92325e-05 -2.82564 6.28375e-05 2.02874e-05 2.73208e-05 -4.05542e-06 2.86014e-05 -8.7646 -0.32085 -1.44225 29.0674 -9.34124 7.15829 -3.67081 0.00366527 1.15287e-05 21.1043 0.000346709 -3.98998e-05 -2.39166 0.00568725 -4.80439e-06 17.4334 3.18055e-15 -9.45661e-06 -2.88246 2.68889e-05 6.63519e-06 -1.70755e-06 2.13443e-05 -7.95139e-16 -1.81172 -1.26576 3.58158 -41.1738 38.8348 59.3011 -2.63925 -0.0236185 -0.0531421 8.69142 0.196562 0.220849 -2.69898 -0.823876 3.23361e-05 24.579 -2.38542e-15 -1.60113e-05 -3.8753 -0.61178 -2.783e-05 5.46415e-05 -2.71073e-05 6.61675e-06 2.88666 12.5391 -0.534974 -4.24395 4.44954 0.672798 10.2653 3.8147e-05 2.00272e-05 -77.1131 8.0324 19.9709 25.5729 -5.68434e-14 2.86102e-06 0.538247 -0.117543 -30.1069 19.8068 -0.345714 6.15208e-06 -6.73749 6.32311 14.3584 9.01142 0.0517003 1.23754 -18.1693 -2.86461 -2.85812 3.91803 0.0559228 -2.95078e-06 -34.7541 -3.1528e-05 6.21011e-06 2.51718 0.0196203 -9.63e-07 -3.68685 -6.08688e-05 -1.81e-05 3.28131 -3.55272e-15 5.72205e-06 8.53774e-06 2.56132e-06 2.56132e-06 8.73462 -0.301443 -1.45045 -30.0677 -9.46812 -5.19289 3.6708 0.00369467 2.86095e-06 -25.5154 1.83118e-05 2.16071e-06 2.39166 0.00574562 6.82123e-07 -17.1087 -0.000139246 -2.1937e-05 2.88243 7.6294e-06 2.38419e-07 6.83019e-06 1.38738e-06 3.41509e-06 7.34497 -0.992582 -3.40566 -23.7653 -14.3118 -0.254073 2.92345 0.0657636 7.89405e-06 -29.6986 -7.66466e-05 -3.52462e-05 1.90305 -0.0136202 2.84755e-06 -23.5678 3.43914e-05 -1.6091e-05 2.8257 -7.6294e-06 5.72205e-06 3.4151e-06 2.13443e-07 4.26887e-07 8.21624 -0.100462 3.70566 -12.236 13.0847 -5.05108 3.89627 0.286875 -4.72849e-06 -21.1687 3.93886e-05 2.84725e-05 2.31843 0.158301 -1.80224e-06 -4.95795 2.84724e-05 6.20667e-06 2.56603 -2.28882e-05 7.62939e-06 8.27342e-13 -2.77476e-05 1.70755e-06 1.78219 -1.25489 3.57234 37.2677 40.0734 -58.4878 2.63924 -0.0236215 -0.0531074 -27.5361 1.08523e-05 1.94553e-05 2.81729 0.161942 -1.92873e-05 -14.4033 -7.02635e-06 -2.61948e-05 3.92326 0 -1.52588e-05 -1.70756e-06 2.0704e-05 2.84947e-05 
